<svg width="22" height="19" viewBox="0 0 22 19" fill="none" xmlns="http://www.w3.org/2000/svg">
<path d="M20.1905 0.734096L0.860267 16.9341C0.504576 17.2322 0.45818 17.7625 0.756595 18.1177C1.05505 18.4729 1.58593 18.5192 1.94157 18.2212L21.2718 2.02116C21.6275 1.72307 21.6739 1.19284 21.3755 0.83764C21.0771 0.482341 20.5462 0.436002 20.1905 0.734096Z" fill="black"/>
<path d="M0.644737 1.94409L19.9778 18.1465C20.3335 18.4447 20.8641 18.3986 21.1622 18.0439C21.4602 17.6891 21.4134 17.1592 21.0577 16.8611L1.72462 0.65872C1.36893 0.360628 0.838326 0.406552 0.540259 0.761338C0.242191 1.11612 0.289047 1.646 0.644737 1.94409Z" fill="black"/>
</svg>
